<svg width="56" height="56" viewBox="0 0 56 56" fill="none" xmlns="http://www.w3.org/2000/svg"><circle cx="28" cy="28" r="28" fill="white"></circle><path fill-rule="evenodd" clip-rule="evenodd" d="M56 28.168C56 12.7055 43.4625 0.167969 28 0.167969C12.5375 0.167969 0 12.7055 0 28.168C0 42.143 10.2375 53.7267 23.625 55.8292V36.2642H16.5138V28.168H23.625V21.9992C23.625 14.983 27.8062 11.1042 34.2012 11.1042C37.265 11.1042 40.47 11.6517 40.47 11.6517V18.543H36.9375C33.4613 18.543 32.3737 20.7005 32.3737 22.918V28.168H40.1387L38.8988 36.2642H32.375V55.8317C45.7625 53.7305 56 42.1467 56 28.168Z" fill="#3B579D"></path></svg>