<svg width="57" height="57" viewBox="0 0 57 57" fill="none" xmlns="http://www.w3.org/2000/svg"><circle cx="28.4297" cy="28.3516" r="28" fill="#E7453C"></circle><path d="M43.7918 25.7358L43.6325 25.0578H28.9354V31.2948H37.7167C36.805 35.6357 32.5744 37.9206 29.1187 37.9206C26.6043 37.9206 23.9539 36.8602 22.1996 35.1556C21.274 34.2419 20.5373 33.1542 20.0315 31.9546C19.5258 30.7551 19.261 29.4673 19.2523 28.165C19.2523 25.5378 20.4298 22.91 22.1432 21.1814C23.8566 19.4528 26.4443 18.4857 29.0172 18.4857C31.9638 18.4857 34.0756 20.0545 34.8653 20.7699L39.2855 16.3612C37.9888 15.2187 34.4267 12.3398 28.8747 12.3398C24.5913 12.3398 20.4841 13.985 17.4818 16.9854C14.5189 19.9399 12.9854 24.2122 12.9854 28.1763C12.9854 32.1403 14.4364 36.1991 17.3076 39.177C20.3755 42.3527 24.7203 44.0127 29.1942 44.0127C33.2647 44.0127 37.123 42.4135 39.8729 39.5121C42.5762 36.6558 43.9744 32.7038 43.9744 28.5609C43.9744 26.8168 43.7996 25.781 43.7918 25.7358Z" fill="white"></path></svg>